<svg id="Layer_1" data-name="Layer 1" xmlns="http://www.w3.org/2000/svg" viewBox="0 0 512 512"><defs><style>.cls-1{fill:#193549;}.cls-2{fill:#ffc600;}.cls-3{fill:#15232d;}.cls-4{fill:#fff;}.cls-5{fill:#1f4662;}</style></defs><rect class="cls-1" x="51" y="51" width="410" height="410"/><rect class="cls-2" x="51" y="58" width="410" height="149"/><rect class="cls-3" x="51" y="51" width="410" height="149"/><g id="Cobalt_Path"><path class="cls-4" d="M101.31,166a27.9,27.9,0,0,1-12.68-2.74,19.91,19.91,0,0,1-8.39-7.77,23,23,0,0,1-2.95-11.85V110.7a23,23,0,0,1,2.95-11.9,20,20,0,0,1,8.39-7.71,27.77,27.77,0,0,1,12.68-2.74A27.36,27.36,0,0,1,114,91.09a20.48,20.48,0,0,1,8.33,7.71,22.59,22.59,0,0,1,3,11.9h-13c0-3.58-1-6.31-2.84-8.17s-4.61-2.8-8.13-2.8-6.25.93-8.18,2.8-2.9,4.55-2.9,8.07v33q0,5.28,2.9,8.13c1.93,1.9,4.66,2.84,8.18,2.84s6.23-.94,8.13-2.84,2.84-4.61,2.84-8.13h13a22.73,22.73,0,0,1-3,11.8,20.27,20.27,0,0,1-8.33,7.82A27.49,27.49,0,0,1,101.31,166Z"/><path class="cls-4" d="M163,165.88a27.1,27.1,0,0,1-12.57-2.75,19.92,19.92,0,0,1-8.29-7.76,23.05,23.05,0,0,1-2.95-11.85V129.44a23.05,23.05,0,0,1,2.95-11.85,20,20,0,0,1,8.29-7.77,30.34,30.34,0,0,1,25.2,0,20.09,20.09,0,0,1,8.23,7.77,22.73,22.73,0,0,1,2.95,11.75v14.18a23,23,0,0,1-2.95,11.85,20,20,0,0,1-8.23,7.76A27.06,27.06,0,0,1,163,165.88Zm0-11.29c3.45,0,6.13-.94,8-2.84s2.85-4.64,2.85-8.23V129.44q0-5.49-2.85-8.28c-1.89-1.86-4.57-2.8-8-2.8a11,11,0,0,0-8,2.8q-2.9,2.79-2.9,8.28v14.08q0,5.39,2.9,8.23C157,153.65,159.62,154.59,163,154.59Z"/><path class="cls-4" d="M243.74,112.88Q238.57,107,230,107q-7,0-11.18,4a13.37,13.37,0,0,0-3.92,7.92h-.32l.41-13.56V89.38H202V165h12.63V154.08h.22a13.37,13.37,0,0,0,3.92,7.92q4.14,4,11.18,4,8.59,0,13.77-5.9t5.18-15.84V128.82Q248.92,118.79,243.74,112.88ZM236,143.62q0,5.38-2.8,8.28a10.24,10.24,0,0,1-7.76,2.9,10,10,0,0,1-7.66-3c-1.86-2-2.8-4.71-2.8-8.23V129.34c0-3.52.94-6.27,2.8-8.23a10,10,0,0,1,7.66-3,10.24,10.24,0,0,1,7.76,2.9Q236,124,236,129.34Z"/><path class="cls-4" d="M304.45,112.21Q298.39,107,287.94,107q-9.84,0-16.15,4.76a18,18,0,0,0-7.24,12.84h12.62a7.31,7.31,0,0,1,3.32-5.08,12.44,12.44,0,0,1,7-1.86,10.89,10.89,0,0,1,7.35,2.33,8.11,8.11,0,0,1,2.69,6.47v4.86H283.38q-10.25,0-15.83,4.56T262,148.8q0,7.86,5.07,12.52T280.9,166q7.77,0,12.42-3.73a11.83,11.83,0,0,0,4.41-7.24H298V165H310.5V126.33Q310.5,117.44,304.45,112.21ZM294.1,153.46a13.85,13.85,0,0,1-9,2.79,11.24,11.24,0,0,1-7.5-2.33,8.76,8.76,0,0,1-.36-12.37,8.73,8.73,0,0,1,6.31-2.28h14v6.94A8.9,8.9,0,0,1,294.1,153.46Z"/><path class="cls-4" d="M358,165a20.2,20.2,0,0,1-9.79-2.28,16.55,16.55,0,0,1-6.57-6.47,19.24,19.24,0,0,1-2.38-9.68V101.08H321.06V89.38h31.16v57.14a6.25,6.25,0,0,0,6.73,6.73h17.18V165Z"/><path class="cls-4" d="M417.64,165q-8.17,0-12.79-4.56t-4.6-12.52V119.71H384.83V108h15.42V92h13v16h21.84v11.7H413.29v28.16c0,3.58,1.76,5.38,5.28,5.38H434.1V165Z"/></g><path id="_2_Path" class="cls-2" d="M77.91,425.66l3.53-23.11L142.55,343q15.73-15.31,23.62-27.25t9.52-23q2.34-15.32-4.23-24.1t-20.22-8.79q-15,0-25,9t-12.34,24.86H92.72a73,73,0,0,1,11.52-28.76,57.42,57.42,0,0,1,21.27-18.71,62,62,0,0,1,28.55-6.53q15.51,0,25.86,6.41a35.59,35.59,0,0,1,14.8,18.21q4.47,11.81,2.12,28.12-2.35,15.58-12.34,31.27t-30.67,35.29l-48.65,45.95H183l-3.05,20.6Z"/><rect class="cls-5" x="222" y="237" width="187" height="37.23"/><rect class="cls-5" x="222" y="288" width="87" height="37.23"/><rect class="cls-5" x="222" y="339" width="151" height="37.23"/><rect class="cls-5" x="222" y="390" width="213" height="37.23"/></svg>